HIERARCHY
ROOT Hips
{
 OFFSET 0.000000 0.000000 0.000000
 CHANNELS 6 Xposition Yposition Zposition Yrotation Xrotation Zrotation
 JOINT Chest
 {
  OFFSET 0.000000 9.876134 0.000104
  CHANNELS 3 Yrotation Xrotation Zrotation
  JOINT Chest2
  {
   OFFSET 0.000000 10.876135 -0.000189
   CHANNELS 3 Yrotation Xrotation Zrotation
   JOINT Chest3
   {
    OFFSET 0.000000 9.827064 0.000000
    CHANNELS 3 Yrotation Xrotation Zrotation
    JOINT Chest4
    {
     OFFSET 0.000000 9.827064 0.000000
     CHANNELS 3 Yrotation Xrotation Zrotation
     JOINT Neck
     {
      OFFSET 0.000000 13.837563 0.000000
      CHANNELS 3 Yrotation Xrotation Zrotation
      JOINT Head
      {
       OFFSET 0.000000 9.147058 -0.000450
       CHANNELS 3 Yrotation Xrotation Zrotation
       End Site
       {
        OFFSET 0.000000 17.513052 -0.000235
       }
      }
     }
     JOINT RightCollar
     {
      OFFSET -3.007720 7.720840 0.000000
      CHANNELS 3 Yrotation Xrotation Zrotation
      JOINT RightShoulder
      {
       OFFSET -14.032537 0.000000 0.000000
       CHANNELS 3 Yrotation Xrotation Zrotation
       JOINT RightElbow
       {
        OFFSET -30.066914 0.000000 0.000000
        CHANNELS 3 Yrotation Xrotation Zrotation
        JOINT RightWrist
        {
         OFFSET -24.575722 0.000000 0.000000
         CHANNELS 3 Yrotation Xrotation Zrotation
         JOINT Prop1
         {
          OFFSET -3.508164 -1.002333 -2.004665
          CHANNELS 3 Yrotation Xrotation Zrotation
          End Site
          {
           OFFSET -75.170611 -33.091209 23.052278
          }
         }
         End Site
         {
          OFFSET -18.342688 0.000000 0.000000
         }
        }
       }
      }
     }
     JOINT LeftCollar
     {
      OFFSET 3.007720 7.720840 0.000000
      CHANNELS 3 Yrotation Xrotation Zrotation
      JOINT LeftShoulder
      {
       OFFSET 14.032537 0.000000 0.000000
       CHANNELS 3 Yrotation Xrotation Zrotation
       JOINT LeftElbow
       {
        OFFSET 30.066914 0.000000 0.000000
        CHANNELS 3 Yrotation Xrotation Zrotation
        JOINT LeftWrist
        {
         OFFSET 24.575722 0.000000 0.000000
         CHANNELS 3 Yrotation Xrotation Zrotation
         End Site
         {
          OFFSET 18.342688 0.000000 0.000000
         }
        }
       }
      }
     }
    }
   }
  }
 }
 JOINT RightHip
 {
  OFFSET -8.019673 -0.000511 -0.000052
  CHANNELS 3 Yrotation Xrotation Zrotation
  JOINT RightKnee
  {
   OFFSET 0.000000 -41.754946 0.000049
   CHANNELS 3 Yrotation Xrotation Zrotation
   JOINT RightAnkle
   {
    OFFSET 0.000000 -40.737371 0.000083
    CHANNELS 3 Yrotation Xrotation Zrotation
    JOINT RightToe
    {
     OFFSET 0.000000 -6.498128 14.692921
     CHANNELS 3 Yrotation Xrotation Zrotation
     End Site
     {
      OFFSET 0.000000 -1.503206 6.410308
     }
    }
   }
  }
 }
 JOINT LeftHip
 {
  OFFSET 8.019673 -0.000511 -0.000052
  CHANNELS 3 Yrotation Xrotation Zrotation
  JOINT LeftKnee
  {
   OFFSET 0.000000 -41.754946 0.000049
   CHANNELS 3 Yrotation Xrotation Zrotation
   JOINT LeftAnkle
   {
    OFFSET 0.000000 -40.737371 0.000083
    CHANNELS 3 Yrotation Xrotation Zrotation
    JOINT LeftToe
    {
     OFFSET 0.000000 -6.498128 14.692921
     CHANNELS 3 Yrotation Xrotation Zrotation
     End Site
     {
      OFFSET 0.000000 -1.503206 6.410308
     }
    }
   }
  }
 }
}
MOTION
Frames: 10
Frame Time: 0.016667
-5.605725 90.667263 -11.593522 175.725457 -7.921968 -0.602218 -3.712937 3.872031 -1.877600 -1.631185 1.744246 -0.816601 -1.631185 1.744246 -0.816601 -1.220965 1.310377 -0.607752 -3.258778 17.991258 2.793446 -6.927707 -2.522608 6.225703 17.669727 5.137158 8.608419 -7.429758 -46.461829 92.054476 61.821857 -39.845343 45.503329 -36.923478 10.144035 10.822675 -12.083950 0.473369 -64.132940 12.517849 -0.303262 -10.313418 -5.123906 3.344123 -71.575683 10.831097 17.762979 3.874338 -3.252808 -4.924586 0.367694 -8.596980 11.515552 -0.368609 -1.992488 1.691666 0.511127 16.420491 -2.702487 -1.801317 0.007660 0.053067 0.164593 0.096657 18.010820 4.788651 10.326159 -2.310826 -0.957069 15.193733 -3.704664 -4.687419 -0.011386 -0.096872 -0.156834
-5.625010 90.665182 -11.585495 175.657156 -8.069040 -0.590739 -3.706927 3.851593 -1.960858 -1.629869 1.731820 -0.850642 -1.629869 1.731820 -0.850642 -1.219901 1.301147 -0.633318 -3.201994 18.022016 2.824204 -6.831287 -2.467693 6.261302 17.579167 5.014482 8.603463 -8.374812 -45.205776 92.422600 61.100848 -39.110010 50.004829 -35.709078 9.400454 9.398617 -11.844223 0.079478 -64.133991 12.454019 -0.194958 -10.215021 -5.152241 3.190869 -71.683413 10.760208 17.761786 3.866119 -3.273820 -4.938613 0.440637 -8.548494 11.603218 -0.388836 -1.954598 1.787883 0.502069 16.348082 -2.763814 -1.844385 0.004543 0.058886 0.160407 0.168378 18.196733 4.740067 10.282378 -2.363852 -0.916420 15.192799 -3.705244 -4.630488 -0.009915 -0.086911 -0.167102
-5.632801 90.636993 -11.550206 175.600228 -7.901682 -0.575787 -3.722171 3.754411 -2.005740 -1.637882 1.678577 -0.873278 -1.637882 1.678577 -0.873278 -1.225928 1.261287 -0.650417 -3.134029 18.024545 2.840058 -6.711408 -2.467236 6.267891 17.569926 5.084356 8.490070 -9.439395 -44.454915 92.727825 62.112778 -39.221098 52.222963 -35.669970 8.599250 9.593816 -11.761337 -0.174883 -63.902595 12.398762 -0.151495 -10.183532 -5.352368 3.056178 -71.769322 10.668431 17.611803 3.820336 -3.287997 -4.947268 0.476014 -8.483416 11.365557 -0.374202 -1.894237 1.877287 0.491902 16.339228 -2.853631 -1.875442 0.008214 0.112410 0.157627 0.170474 18.080139 4.676492 10.331396 -2.418211 -0.896107 15.168583 -3.755162 -4.572201 -0.003365 -0.032628 -0.170403
-5.656797 90.611121 -11.507315 175.572768 -7.794809 -0.555272 -3.769584 3.680783 -2.029598 -1.658577 1.639136 -0.886310 -1.658577 1.639136 -0.886310 -1.241473 1.231771 -0.660243 -3.057472 18.046725 2.839276 -6.568893 -2.432376 6.239686 17.660416 4.970930 8.408496 -10.152447 -43.721532 92.472889 62.390414 -39.549012 55.148468 -35.302887 7.908953 9.239566 -11.700996 -0.529223 -63.763799 12.391907 -0.050640 -10.218048 -5.617852 2.929136 -71.823982 10.561717 17.446948 3.776680 -3.301827 -4.934110 0.456794 -8.429282 11.187497 -0.359625 -1.820469 1.964740 0.472276 16.219728 -2.938883 -1.889824 0.007094 0.160802 0.143119 0.200450 17.975095 4.647544 10.328531 -2.412118 -0.900834 15.114185 -3.812987 -4.518118 0.002394 0.013546 -0.164906
-5.676882 90.612141 -11.483530 175.564329 -8.044869 -0.544170 -3.813389 3.754463 -2.064294 -1.675996 1.673931 -0.901627 -1.675996 1.673931 -0.901627 -1.254441 1.257935 -0.671586 -2.992562 18.089203 2.845750 -6.448800 -2.358312 6.227271 17.731937 4.768213 8.370594 -10.701062 -43.068165 92.097885 61.749386 -39.519236 58.518941 -34.429623 7.543627 8.804431 -11.382838 -0.893290 -63.553555 12.388469 0.092825 -10.266582 -5.887293 2.777981 -71.871779 10.486591 17.322346 3.772512 -3.319428 -4.912851 0.432724 -8.396115 11.385594 -0.402411 -1.783938 2.020169 0.449491 16.135011 -2.965606 -1.882960 0.007329 0.157549 0.127995 0.251598 18.205459 4.638855 10.268469 -2.382544 -0.896724 15.244288 -3.807921 -4.493032 0.002271 0.009146 -0.153019
-5.698695 90.637106 -11.476731 175.572933 -8.562943 -0.526071 -3.855898 3.930106 -2.123498 -1.693024 1.762970 -0.919303 -1.693024 1.762970 -0.919303 -1.267018 1.324790 -0.684544 -2.940592 18.144319 2.851397 -6.351393 -2.259824 6.216785 17.801298 4.639880 8.339568 -11.023524 -42.555762 91.576652 61.395600 -39.970736 61.092246 -34.007906 7.413487 8.873347 -10.881796 -1.081406 -63.401349 12.401125 0.287411 -10.311088 -6.219407 2.594016 -71.926218 10.454384 17.184868 3.796926 -3.325456 -4.899426 0.430602 -8.389617 11.870196 -0.494222 -1.793703 2.047830 0.432060 16.124490 -2.917137 -1.882795 0.006196 0.087624 0.115683 0.226254 18.688351 4.599586 10.257890 -2.335065 -0.886958 15.154445 -3.790583 -4.444852 -0.002224 -0.029802 -0.146484
-5.714460 90.659014 -11.465717 175.612346 -9.011151 -0.536205 -3.866216 4.133100 -2.197141 -1.695756 1.858650 -0.947981 -1.695756 1.858650 -0.947981 -1.268826 1.396634 -0.705771 -2.910767 18.158384 2.895206 -6.310003 -2.232640 6.286519 17.739543 4.337357 8.320833 -10.978735 -41.972355 90.914715 60.493181 -41.022339 63.340738 -33.864979 8.329510 8.338301 -10.301423 -1.235534 -63.333600 12.350511 0.357306 -10.290035 -6.494255 2.402184 -71.944219 10.439941 17.144547 3.837168 -3.326562 -4.913847 0.473343 -8.419679 12.297361 -0.556697 -1.803335 2.065067 0.426363 16.078857 -2.909374 -1.890689 0.005780 0.061758 0.108021 0.167281 19.082575 4.584704 10.261800 -2.281898 -0.876963 15.057238 -3.784821 -4.389527 -0.004515 -0.044138 -0.144541
-5.715181 90.654185 -11.429678 175.668521 -9.128300 -0.574762 -3.863261 4.226250 -2.252151 -1.694200 1.898790 -0.969549 -1.694200 1.898790 -0.969549 -1.267524 1.426797 -0.721837 -2.899067 18.145448 2.949766 -6.307282 -2.253207 6.383797 17.672260 4.043651 8.310769 -11.196221 -41.543106 90.532645 60.525903 -41.215233 64.987679 -33.549813 8.524453 7.814223 -9.639967 -1.416693 -63.556718 12.281915 0.338251 -10.272113 -6.662050 2.220797 -71.918306 10.423868 17.146744 3.882364 -3.332594 -4.934535 0.563439 -8.459430 12.385767 -0.548311 -1.794008 2.089193 0.424129 16.185488 -2.915572 -1.915899 0.007422 0.062785 0.108473 0.075881 19.151564 4.583840 10.269508 -2.256980 -0.861718 15.079266 -3.772750 -4.333541 -0.003773 -0.032761 -0.145867
-5.727538 90.626223 -11.374812 175.721009 -9.003222 -0.624332 -3.887272 4.202106 -2.268770 -1.705950 1.881706 -0.975543 -1.705950 1.881706 -0.975543 -1.276347 1.414020 -0.726344 -2.887965 18.143293 2.973242 -6.294730 -2.256214 6.423430 17.722234 4.132035 8.259040 -11.685585 -41.506727 90.580396 62.961509 -41.052125 64.306240 -33.762699 7.640353 8.964622 -8.836664 -1.502216 -63.777827 12.290248 0.331979 -10.300057 -6.756308 2.074110 -71.869779 10.387034 17.104305 3.913906 -3.339838 -4.952584 0.661871 -8.481635 12.234710 -0.475897 -1.793009 2.105946 0.422405 16.147676 -2.936795 -1.937167 0.005556 0.086151 0.103873 -0.007621 19.039601 4.571358 10.265812 -2.318468 -0.827429 15.128638 -3.753747 -4.278844 -0.000552 -0.005106 -0.146120
-5.730402 90.602901 -11.321200 175.771549 -8.964815 -0.678894 -3.927299 4.223123 -2.267835 -1.724674 1.883380 -0.978774 -1.724674 1.883380 -0.978774 -1.290375 1.415314 -0.728704 -2.888633 18.147635 2.975527 -6.296405 -2.247932 6.427547 17.782151 4.175983 8.248534 -12.122428 -41.552526 90.546459 65.067589 -41.872604 63.386643 -34.727717 7.457196 10.223750 -8.094287 -1.591111 -63.927313 12.318281 0.314640 -10.334214 -6.733971 1.947814 -71.835051 10.311935 17.040240 3.940581 -3.339137 -4.971090 0.759574 -8.492816 12.155572 -0.420860 -1.800263 2.141833 0.421422 16.158187 -2.985187 -1.951773 0.007938 0.131601 0.099596 -0.032841 19.058620 4.570067 10.250869 -2.428034 -0.791530 15.108022 -3.748950 -4.229163 0.002859 0.031941 -0.139772
